<svg id="Layer_1" data-name="Layer 1" xmlns="http://www.w3.org/2000/svg" viewBox="0 0 271 60"><defs><style>.cls-1{fill:#ea580d;}.cls-2{fill:#fff;}.cls-3{fill:#11182a;}</style></defs><rect class="cls-1" x="213" y="2.06" width="56" height="56" rx="5.03"/><path class="cls-2" d="M218.08,31.7,233.75,47a3.62,3.62,0,0,0,3.53.89l8.7-2.5,0,.14c6,7.5,15,12.5,15,12.5h8v-5c-12.45-4.72-17.9-10.18-19.19-11.63L252,32.86a3.6,3.6,0,0,0-1-3.5L235.4,14a1.78,1.78,0,0,0-2.52,0L218.06,29.18A1.78,1.78,0,0,0,218.08,31.7Zm27.15.55L234.37,21.62a1,1,0,0,1-.32-.76,1.06,1.06,0,0,1,1.8-.76l10.86,10.63a1.06,1.06,0,0,1-1.48,1.52Zm-15.76-5.63a1,1,0,0,1-.32-.75,1.07,1.07,0,0,1,1.81-.76l10.86,10.63a1.06,1.06,0,1,1-1.49,1.51Zm-5.22,4.25a1.07,1.07,0,0,1,1.81-.76l10.86,10.63a1.06,1.06,0,1,1-1.48,1.51L224.58,31.62A1,1,0,0,1,224.25,30.87Z"/><path class="cls-2" d="M258.37,20.94l-.87,4.37-.87-4.37a2.89,2.89,0,0,0-2.26-2.26L250,17.81l4.37-.88a2.89,2.89,0,0,0,2.26-2.26l.87-4.36.87,4.36a2.89,2.89,0,0,0,2.26,2.26l4.37.88-4.37.87A2.89,2.89,0,0,0,258.37,20.94Z"/><path class="cls-3" d="M17.16,46.46a1.81,1.81,0,0,0-1.38-.54,1.82,1.82,0,0,0-1.4.55,2.49,2.49,0,0,0,0,3,1.8,1.8,0,0,0,1.4.57,1.78,1.78,0,0,0,1.35-.56A2.08,2.08,0,0,0,17.66,48,2.14,2.14,0,0,0,17.16,46.46Zm-5.1,0a1.78,1.78,0,0,0-1.4-.55,1.75,1.75,0,0,0-1.42.58,2.48,2.48,0,0,0,0,3,1.73,1.73,0,0,0,1.42.6A1.78,1.78,0,0,0,12,49.5,2.16,2.16,0,0,0,12.55,48,2.27,2.27,0,0,0,12.06,46.47Z"/><path class="cls-3" d="M73.52,18.06V33.87H66.8V24.72H61.92v9.15H58.14a5.38,5.38,0,0,1-1.38-.15,2.73,2.73,0,0,1-.94-.44,6.42,6.42,0,0,0,.35-1.22,8.81,8.81,0,0,0,.11-1.42,6.09,6.09,0,0,0-.92-3.28,5.87,5.87,0,0,0-2.67-2.3,7.1,7.1,0,0,0-1.59-.54,8.86,8.86,0,0,0-1.85-.18,9,9,0,0,0-2.58.42,11.4,11.4,0,0,0-2.61,1.18,6.24,6.24,0,0,0-1.22,2.35,8.8,8.8,0,0,0-.31,2.2,5.81,5.81,0,0,0,1,3.38H37.26V24.72H32.37v9.15h-3a5.51,5.51,0,0,1-1.09-.11,2.28,2.28,0,0,1-1.11-.61,6,6,0,0,1-.68-.83c-.3-.41-.64-.88-1-1.42-.59-.83-1.11-1.52-1.58-2.08a4.76,4.76,0,0,0-1.73-1.3,4.37,4.37,0,0,0-.8-.28,4.48,4.48,0,0,0-1-.11,5.21,5.21,0,0,0-2.08.51A10.61,10.61,0,0,0,16.1,29,8.64,8.64,0,0,0,14.33,31a5.33,5.33,0,0,0-.71,1.5A5.93,5.93,0,0,0,13.43,34a4.2,4.2,0,0,0,.19,1.27,3.76,3.76,0,0,0,.63,1.18,4.49,4.49,0,0,0,1.17,1,6.79,6.79,0,0,0,1.81.77,5.2,5.2,0,0,1,1.25.5.69.69,0,0,1,.37.58c0,.19-.13.34-.4.45a3.45,3.45,0,0,1-1,.25,10.64,10.64,0,0,1-1.29.08h-4.7a3.15,3.15,0,0,1-1.78-.43,2.16,2.16,0,0,1-.87-1.16,5,5,0,0,1-.25-1.64A15,15,0,0,1,8.66,35,16.78,16.78,0,0,1,9,33H4.66a24.72,24.72,0,0,0-.57,2.66,17.94,17.94,0,0,0-.2,2.56A5.91,5.91,0,0,0,4.57,41a5.39,5.39,0,0,0,2,2.09,5.9,5.9,0,0,0,3.17.8h6a11.67,11.67,0,0,0,5.95-1.2,4.22,4.22,0,0,0,1.62-5.28,3.69,3.69,0,0,0-1.24-1.37,8.5,8.5,0,0,0-1-.57q-.57-.28-1.35-.6a6.38,6.38,0,0,1-1-.49,2.13,2.13,0,0,1-.62-.55,1.09,1.09,0,0,1-.21-.64,1,1,0,0,1,.21-.58,2.81,2.81,0,0,1,.53-.57,3.36,3.36,0,0,1,.67-.44,1.49,1.49,0,0,1,.61-.17,1.46,1.46,0,0,1,.62.13,3.31,3.31,0,0,1,.59.42,5.68,5.68,0,0,1,.82.82c.32.38.67.85,1.05,1.4l.84,1.18a6.41,6.41,0,0,0,.58.73,5.6,5.6,0,0,0,1.22,1,4,4,0,0,0,1.49.46,15.31,15.31,0,0,0,2.11.12H48.45a9,9,0,0,0,2.92-.43,8.2,8.2,0,0,0,2.46-1.35,5.57,5.57,0,0,0,2,1.38,6.45,6.45,0,0,0,2.25.4H78.4V18.06ZM51.09,32.45a2.11,2.11,0,0,1-1,1,3.7,3.7,0,0,1-1.77.36H48a6.87,6.87,0,0,1-.47-1.41,6.68,6.68,0,0,1-.15-1.33A6.47,6.47,0,0,1,47.42,30,5.63,5.63,0,0,1,47.67,29a2.19,2.19,0,0,1,.83-.45,3,3,0,0,1,.8-.12,1.9,1.9,0,0,1,1.48.68A2.75,2.75,0,0,1,51.37,31,3.68,3.68,0,0,1,51.09,32.45Z"/><path class="cls-3" d="M36.28,19a2,2,0,0,0-1.48-.57,1.93,1.93,0,0,0-1.51.58,2.34,2.34,0,0,0-.53,1.62,2.29,2.29,0,0,0,.56,1.59,2.1,2.1,0,0,0,2.94,0,2.22,2.22,0,0,0,.56-1.61A2.27,2.27,0,0,0,36.28,19Z"/><path class="cls-3" d="M68,40.65a1.78,1.78,0,0,0-1.38-.55,1.82,1.82,0,0,0-1.4.56,2.1,2.1,0,0,0-.52,1.51,2.12,2.12,0,0,0,.52,1.5,2,2,0,0,0,2.75,0,2.1,2.1,0,0,0,.53-1.51A2.17,2.17,0,0,0,68,40.65Zm-5.11,0a1.76,1.76,0,0,0-1.39-.56,1.74,1.74,0,0,0-1.42.59,2.43,2.43,0,0,0,0,3,1.72,1.72,0,0,0,1.42.6,1.79,1.79,0,0,0,1.37-.56,2.14,2.14,0,0,0,.51-1.51A2.18,2.18,0,0,0,62.87,40.66Z"/><rect class="cls-3" x="83.58" y="18.06" width="4.89" height="19.64"/><path class="cls-3" d="M108.21,19a2,2,0,0,0-1.48-.57,1.93,1.93,0,0,0-1.51.58,2.34,2.34,0,0,0-.53,1.62,2.29,2.29,0,0,0,.56,1.59,2.1,2.1,0,0,0,2.94,0,2.22,2.22,0,0,0,.56-1.61A2.27,2.27,0,0,0,108.21,19Z"/><path class="cls-3" d="M123.79,40.88a1.77,1.77,0,0,0-1.39-.54,1.75,1.75,0,0,0-1.44.58,2.3,2.3,0,0,0-.48,1.51A2.17,2.17,0,0,0,121,44a2,2,0,0,0,2.77,0,2.64,2.64,0,0,0,0-3.09Z"/><path class="cls-3" d="M173.42,18.06V33.87h-3a5.38,5.38,0,0,1-1.38-.15,2.82,2.82,0,0,1-.94-.44,6.42,6.42,0,0,0,.35-1.22,8.81,8.81,0,0,0,.11-1.42,6.09,6.09,0,0,0-.92-3.28,5.87,5.87,0,0,0-2.67-2.3,7.1,7.1,0,0,0-1.59-.54,8.86,8.86,0,0,0-1.85-.18,9,9,0,0,0-2.58.42,11.4,11.4,0,0,0-2.61,1.18,6.24,6.24,0,0,0-1.22,2.35,8.8,8.8,0,0,0-.31,2.2,5.81,5.81,0,0,0,1,3.38h-6.23V31.52q0-3.57-1.81-5.31a6.83,6.83,0,0,0-4.94-1.74,7.51,7.51,0,0,0-2.62.47,8.3,8.3,0,0,0-2.42,1.4,8,8,0,0,0-1.86,2.24V18.06h-5V33.87H124.9V24.72H120v9.15h-3a1.78,1.78,0,0,1-1.44-.56,5.73,5.73,0,0,1-.75-1.14,13.85,13.85,0,0,1-.6-1.54l-.36-1.18a7.52,7.52,0,0,0-1.41-3,5,5,0,0,0-2.26-1.54,9.78,9.78,0,0,0-3.1-.45,12.67,12.67,0,0,0-3.08.37,28.87,28.87,0,0,0-3.26,1.05l1.76,3.57a15.32,15.32,0,0,1,2.25-.87,6.32,6.32,0,0,1,1.68-.27,3.21,3.21,0,0,1,1.34.25,2.65,2.65,0,0,1,1,.77,4.5,4.5,0,0,1,.75,1.38l.25.63c.09.24.2.5.32.8a18.89,18.89,0,0,0-2.64.77,16.41,16.41,0,0,0-2.27,1,14.74,14.74,0,0,0-1.89,1.25,7.05,7.05,0,0,0-2.05,2.56,6.92,6.92,0,0,0-.66,3.1,6.33,6.33,0,0,0,1.12,3.67,7,7,0,0,0,2.94,2.38,9.89,9.89,0,0,0,4.11.83,14.89,14.89,0,0,0,2.19-.17c.75-.11,1.43-.23,2.07-.35l-.54-3.75a14.39,14.39,0,0,1-1.47.26,13.59,13.59,0,0,1-1.5.08,4.76,4.76,0,0,1-2.1-.45A3.59,3.59,0,0,1,106,42.09a3.16,3.16,0,0,1-.53-1.78,3.3,3.3,0,0,1,.56-1.85A4.52,4.52,0,0,1,107.66,37a13,13,0,0,1,1.4-.7c.45-.19.89-.35,1.33-.49a13.31,13.31,0,0,1,1.31-.34,7.07,7.07,0,0,0,1.24,1.26,4.4,4.4,0,0,0,1.42.71,7.21,7.21,0,0,0,1.94.23h44.43a9,9,0,0,0,2.92-.43,8.2,8.2,0,0,0,2.46-1.35,5.57,5.57,0,0,0,1.95,1.38,6.45,6.45,0,0,0,2.25.4h8V18.06ZM144.63,33.87h-8.69V31.94A8.53,8.53,0,0,1,137.63,30a8.39,8.39,0,0,1,2-1.27,4.71,4.71,0,0,1,1.89-.45,3.14,3.14,0,0,1,2.32.79,3,3,0,0,1,.79,2.24Zm18.74-1.42a2.11,2.11,0,0,1-1,1,3.7,3.7,0,0,1-1.77.36h-.41a6.87,6.87,0,0,1-.47-1.41,6.68,6.68,0,0,1-.15-1.33A6.47,6.47,0,0,1,159.7,30,5.63,5.63,0,0,1,160,29a2.19,2.19,0,0,1,.83-.45,3,3,0,0,1,.8-.12,1.9,1.9,0,0,1,1.48.68,2.75,2.75,0,0,1,.59,1.88A3.68,3.68,0,0,1,163.37,32.45Z"/><rect class="cls-3" x="183.48" y="18.06" width="4.89" height="19.64"/></svg>